<svg width="54" height="28" viewBox="0 0 54 28" fill="none" xmlns="http://www.w3.org/2000/svg">
<g id="image2vector (1) 1">
<g id="svgg">
<path id="path0" fill-rule="evenodd" clip-rule="evenodd" d="M8.6401 5.71822C8.6401 5.75116 8.55505 5.77803 8.4511 5.77803C8.34715 5.77803 8.2621 5.80233 8.2621 5.83203C8.2621 5.86173 8.1892 5.88603 8.1001 5.88603C8.011 5.88603 7.9381 5.91033 7.9381 5.94003C7.9381 5.96973 7.85305 5.99403 7.7491 5.99403C7.64515 5.99403 7.5601 6.02103 7.5601 6.05397C7.5601 6.09042 7.48747 6.1054 7.37488 6.09217C7.26512 6.07935 7.19357 6.09352 7.19938 6.12687C7.20478 6.15778 7.13012 6.19059 7.0336 6.1999C6.93707 6.20922 6.8581 6.23959 6.8581 6.2674C6.8581 6.29521 6.7852 6.31803 6.6961 6.31803C6.607 6.31803 6.5341 6.34233 6.5341 6.37203C6.5341 6.40173 6.46268 6.42603 6.37534 6.42603C6.28799 6.42603 6.19997 6.45262 6.17986 6.48516C6.15974 6.51783 6.07415 6.5343 5.98978 6.52188C5.89474 6.50797 5.82575 6.5266 5.80888 6.57075C5.79376 6.6099 5.7214 6.64203 5.64796 6.64203C5.57452 6.64203 5.49946 6.66633 5.4811 6.69603C5.46274 6.72573 5.38984 6.75003 5.3191 6.75003C5.24836 6.75003 5.17546 6.77433 5.1571 6.80403C5.13874 6.83373 5.05369 6.85803 4.9681 6.85803C4.88251 6.85803 4.79746 6.88233 4.7791 6.91203C4.76074 6.94173 4.6742 6.96603 4.58686 6.96603C4.49951 6.96603 4.4281 6.99033 4.4281 7.02003C4.4281 7.04973 4.35668 7.07403 4.26934 7.07403C4.18199 7.07403 4.09424 7.10035 4.0744 7.13235C4.05455 7.16448 3.98273 7.1769 3.91483 7.15975C3.83329 7.13937 3.78091 7.15624 3.76039 7.20943C3.72313 7.30677 3.45758 7.31797 3.45272 7.22253C3.45083 7.1854 3.42626 7.21227 3.39832 7.28233C3.35822 7.38223 3.31961 7.40262 3.21836 7.3771C3.12832 7.35456 3.07931 7.37103 3.05609 7.43151C3.03409 7.48875 2.98373 7.50805 2.9084 7.48834C2.84266 7.4712 2.7595 7.49293 2.71306 7.53937C2.66864 7.58379 2.59682 7.60674 2.55376 7.59014C2.51056 7.57353 2.42591 7.59473 2.36557 7.63698C2.30509 7.67924 2.21963 7.70002 2.17549 7.68315C2.13134 7.66614 2.07613 7.68315 2.05277 7.72095C2.02942 7.75861 1.94207 7.78953 1.85864 7.78953C1.77521 7.78953 1.67558 7.82071 1.63738 7.85892C1.59931 7.89713 1.51898 7.91562 1.45904 7.89996C1.39451 7.88309 1.3501 7.8978 1.3501 7.93614C1.3501 8.01754 1.50548 8.00634 3.5101 7.78008C4.13825 7.7092 4.36978 7.66465 4.40474 7.60809C4.42108 7.58163 4.49236 7.56003 4.5631 7.56003C4.63384 7.56003 4.70674 7.53573 4.7251 7.50603C4.74346 7.47633 4.80596 7.45203 4.86401 7.45203C4.92206 7.45203 5.0117 7.42989 5.06327 7.40276C5.14468 7.35996 7.007 6.75178 8.5861 6.25228C8.86825 6.16305 9.14135 6.06841 9.19292 6.04195C9.24449 6.01563 9.33413 5.99403 9.39218 5.99403C9.45023 5.99403 9.51274 5.96973 9.5311 5.94003C9.54946 5.91033 9.61898 5.88603 9.68554 5.88603C9.75209 5.88603 9.82958 5.86375 9.8578 5.83662C9.88601 5.80935 9.96985 5.77627 10.0441 5.76291C10.1183 5.74968 9.8713 5.73537 9.49505 5.73132C9.11881 5.7274 8.77253 5.70931 8.72555 5.69122C8.67857 5.67327 8.6401 5.68542 8.6401 5.71822ZM14.2831 5.79018C14.194 5.82015 14.0788 5.86618 14.0273 5.89237C13.9757 5.91856 13.8843 5.94003 13.8241 5.94003C13.7639 5.94003 13.6725 5.9619 13.6209 5.98876C13.5694 6.01563 13.4177 6.06747 13.2841 6.10405C12.8436 6.22474 12.7205 6.26052 12.3931 6.36366C12.2149 6.41968 11.9597 6.49596 11.8261 6.53309C11.6924 6.57021 11.5223 6.61948 11.4481 6.6427C11.3022 6.6882 10.7516 6.84736 10.2331 6.99384C10.0549 7.04419 9.87724 7.09482 9.83822 7.1063C9.66853 7.15652 9.86104 7.23603 10.1521 7.23603C10.3268 7.23603 10.4847 7.26033 10.5031 7.29003C10.5215 7.31973 10.676 7.34403 10.8465 7.34403C11.017 7.34403 11.1796 7.36617 11.2078 7.3933C11.236 7.4203 11.3988 7.45676 11.5696 7.47431C11.7404 7.49172 12.0198 7.52034 12.1906 7.53776C12.3614 7.55531 12.5242 7.59175 12.5524 7.61875C12.5806 7.64589 12.7432 7.66803 12.9137 7.66803C13.0842 7.66803 13.2387 7.69233 13.2571 7.72203C13.2755 7.75173 13.43 7.77603 13.6005 7.77603C13.771 7.77603 13.9336 7.79817 13.9618 7.8253C13.99 7.8523 14.1528 7.88875 14.3236 7.9063C14.4944 7.92372 14.7738 7.95234 14.9446 7.96975C15.1154 7.9873 15.2782 8.02375 15.3064 8.05075C15.3346 8.07789 15.4972 8.10003 15.6677 8.10003C15.8382 8.10003 15.9927 8.12433 16.0111 8.15403C16.0295 8.18373 16.1782 8.20803 16.3418 8.20803C16.5053 8.20803 16.6802 8.22909 16.7301 8.25474C16.7802 8.28052 16.9769 8.31508 17.1674 8.33142L17.5136 8.36139L16.1958 7.04271C14.7463 5.5924 14.7883 5.61981 14.2831 5.79018ZM17.5817 6.43831C18.477 7.3092 18.4681 7.2934 18.4681 8.0139V8.58117L18.6436 8.60722C18.7401 8.62153 19.135 8.68309 19.5211 8.74425C19.9072 8.80527 20.4639 8.86966 20.7582 8.88721C21.0525 8.9049 21.3517 8.94149 21.4232 8.96862C21.8692 9.13818 21.8261 9.02761 21.1954 8.38461L20.5741 7.75105V6.73761V5.72403H18.7107H16.8473L17.5817 6.43831ZM24.5856 7.74201C26.1187 9.25982 26.6693 9.77282 26.7996 9.80454C26.8951 9.82763 28.732 9.8549 30.8819 9.86502L34.7907 9.88338L34.4189 9.63039C34.2144 9.49107 33.877 9.25226 33.6691 9.09957C32.1135 7.95693 29.5319 6.58762 28.9338 6.58803C28.8836 6.58803 28.8292 6.56656 28.813 6.54024C28.7967 6.51391 28.7164 6.47949 28.6343 6.46369C28.5522 6.4479 28.3879 6.40699 28.2691 6.37284C28.1503 6.33882 27.962 6.28819 27.8506 6.26038C27.7392 6.23271 27.5448 6.18398 27.4186 6.15225C26.494 5.91951 25.2733 5.78802 23.6791 5.74928L22.5451 5.72173L24.5856 7.74201ZM9.31523 12.5711C9.07777 12.5799 8.86028 12.6102 8.83193 12.6386C8.80372 12.6668 8.72893 12.69 8.66575 12.69C8.47904 12.69 7.78663 12.9444 7.40336 13.1538C4.96877 14.4836 4.00406 17.2837 5.13239 19.7453C5.22055 19.9374 5.27225 20.1253 5.25511 20.1908C5.2381 20.2558 5.25119 20.304 5.28575 20.304C5.31896 20.304 5.3461 20.3472 5.3461 20.4001C5.3461 20.4529 5.3947 20.5312 5.4541 20.574C5.5135 20.6168 5.5621 20.6855 5.5621 20.7266C5.5621 20.8289 6.61712 21.87 6.7208 21.87C6.76657 21.87 6.8041 21.8903 6.8041 21.9149C6.8041 21.9396 6.87092 21.9941 6.9526 22.0361C7.03427 22.0779 7.14038 22.155 7.18844 22.2071C7.2365 22.2594 7.31548 22.302 7.36394 22.302C7.41241 22.302 7.4521 22.3263 7.4521 22.356C7.4521 22.3857 7.49921 22.41 7.55686 22.41C7.6145 22.41 7.67674 22.4343 7.6951 22.464C7.71346 22.4937 7.78784 22.518 7.86034 22.518C7.93283 22.518 7.9921 22.5423 7.9921 22.572C7.9921 22.6017 8.05136 22.626 8.12386 22.626C8.19635 22.626 8.27074 22.6503 8.2891 22.68C8.30746 22.7097 8.40466 22.734 8.5051 22.734C8.60554 22.734 8.70274 22.7583 8.7211 22.788C8.74148 22.8211 9.17159 22.842 9.83134 22.842C10.5132 22.842 10.9081 22.8222 10.9081 22.788C10.9081 22.7583 11.0053 22.734 11.1241 22.734C11.2429 22.734 11.3401 22.7097 11.3401 22.68C11.3401 22.6503 11.413 22.626 11.5021 22.626C11.5912 22.626 11.6641 22.6017 11.6641 22.572C11.6641 22.5423 11.7104 22.518 11.767 22.518C11.8571 22.518 12.2925 22.3217 12.3661 22.2479C12.3809 22.233 12.4599 22.1865 12.5416 22.1444C12.6233 22.1022 12.6901 22.0476 12.6901 22.0228C12.6901 21.9983 12.7284 21.978 12.7753 21.978C12.8223 21.978 12.9498 21.8869 13.0588 21.7755C13.1679 21.6642 13.3231 21.539 13.4037 21.4974C13.4844 21.4558 13.5376 21.4012 13.5221 21.3759C13.5064 21.3507 13.5316 21.33 13.5779 21.33C13.6242 21.33 13.6621 21.3105 13.6621 21.2866C13.6621 21.2627 13.7493 21.1479 13.856 21.0314C13.9626 20.915 14.0848 20.7524 14.1273 20.6699C14.17 20.5875 14.2286 20.52 14.2574 20.52C14.2865 20.52 14.3101 20.4714 14.3101 20.412C14.3101 20.3526 14.3283 20.304 14.3506 20.304C14.3729 20.304 14.3934 20.2251 14.3962 20.1285C14.3991 20.032 14.4641 19.8072 14.5407 19.629C14.6728 19.3214 14.7677 18.9787 14.9083 18.3018C14.9673 18.0178 14.959 17.6821 14.8726 16.8607C14.8531 16.6746 14.8157 16.509 14.7895 16.493C14.7634 16.4769 14.7421 16.3936 14.7421 16.308C14.7421 16.2224 14.7178 16.1374 14.6881 16.119C14.6584 16.1007 14.6341 16.0278 14.6341 15.957C14.6341 15.8863 14.6098 15.8134 14.5801 15.795C14.5504 15.7767 14.5261 15.7144 14.5261 15.6568C14.5261 15.5991 14.5018 15.552 14.4721 15.552C14.4424 15.552 14.4181 15.5034 14.4181 15.444C14.4181 15.3846 14.3938 15.336 14.3641 15.336C14.3344 15.336 14.3101 15.2874 14.3101 15.228C14.3101 15.1686 14.2858 15.12 14.2561 15.12C14.2264 15.12 14.2021 15.0936 14.2021 15.0613C14.2021 14.9645 13.872 14.5212 13.5271 14.1551C13.0555 13.6543 12.6276 13.3438 11.9881 13.0385C11.8247 12.9604 11.6488 12.8744 11.5973 12.8473C11.5457 12.8202 11.4561 12.798 11.398 12.798C11.34 12.798 11.2775 12.7737 11.2591 12.744C11.2407 12.7143 11.1527 12.69 11.0633 12.69C10.9741 12.69 10.86 12.6688 10.8101 12.643C10.7011 12.5866 9.9149 12.5488 9.31523 12.5711ZM43.4972 12.5711C43.2598 12.5799 43.0423 12.6102 43.0139 12.6386C42.9857 12.6668 42.9109 12.69 42.8477 12.69C42.1003 12.69 40.505 13.753 39.7683 14.742C38.7859 16.0608 38.5965 18.1675 39.3176 19.7578C39.4044 19.9494 39.4622 20.1482 39.446 20.1994C39.4297 20.2507 39.4476 20.3256 39.4857 20.3659C39.5239 20.4061 39.5895 20.5059 39.6318 20.5875C39.6739 20.6692 39.7286 20.736 39.7533 20.736C39.7778 20.736 39.7981 20.7711 39.7981 20.8139C39.7981 20.8569 39.8892 20.9773 40.0006 21.0815C40.112 21.1857 40.3461 21.4058 40.5209 21.5705C40.6956 21.7353 40.8665 21.87 40.9004 21.87C40.9344 21.87 40.9964 21.9173 41.0381 21.9752C41.0796 22.033 41.1316 22.0692 41.1536 22.0557C41.1755 22.0422 41.2257 22.0631 41.2653 22.1024C41.3047 22.1415 41.4161 22.2085 41.5126 22.251C41.6091 22.2935 41.6881 22.3467 41.6881 22.3693C41.6881 22.3917 41.7367 22.41 41.7961 22.41C41.8555 22.41 41.9041 22.4343 41.9041 22.464C41.9041 22.4937 41.9512 22.518 42.0089 22.518C42.0665 22.518 42.1287 22.5423 42.1471 22.572C42.1655 22.6017 42.2384 22.626 42.3091 22.626C42.3798 22.626 42.4527 22.6503 42.4711 22.68C42.4895 22.7097 42.5867 22.734 42.6871 22.734C42.7875 22.734 42.8847 22.7583 42.9031 22.788C42.9235 22.8211 43.3536 22.842 44.0133 22.842C44.6952 22.842 45.0901 22.8222 45.0901 22.788C45.0901 22.7583 45.1873 22.734 45.3061 22.734C45.4249 22.734 45.5221 22.7097 45.5221 22.68C45.5221 22.6503 45.595 22.626 45.6841 22.626C45.7732 22.626 45.8461 22.6017 45.8461 22.572C45.8461 22.5423 45.9068 22.518 45.9811 22.518C46.0553 22.518 46.1161 22.4937 46.1161 22.464C46.1161 22.4343 46.1647 22.41 46.2241 22.41C46.2835 22.41 46.3321 22.3857 46.3321 22.356C46.3321 22.3263 46.3807 22.302 46.4401 22.302C46.4995 22.302 46.5481 22.2777 46.5481 22.248C46.5481 22.2183 46.5913 22.194 46.6442 22.194C46.697 22.194 46.7753 22.1454 46.8181 22.086C46.8609 22.0266 46.9338 21.978 46.9801 21.978C47.0264 21.978 47.0993 21.9294 47.1421 21.87C47.1849 21.8106 47.251 21.762 47.289 21.762C47.327 21.762 47.3581 21.7377 47.3581 21.708C47.3581 21.6783 47.3842 21.654 47.416 21.654C47.4959 21.654 47.6305 21.5124 47.5895 21.4715C47.5711 21.453 47.5856 21.438 47.6216 21.438C47.6575 21.438 47.7477 21.3773 47.822 21.303C47.8962 21.2288 47.9456 21.168 47.9317 21.168C47.9179 21.168 48.0018 21.0658 48.1183 20.941C48.2348 20.8159 48.3301 20.6755 48.3301 20.6288C48.3301 20.5821 48.3787 20.5088 48.4381 20.466C48.5087 20.4151 48.5461 20.3263 48.5461 20.209C48.5461 20.1104 48.5966 19.9308 48.6583 19.8098C48.9114 19.3137 49.08 18.6273 49.1205 17.928C49.1475 17.4628 49.0005 16.3786 48.866 16.0515C48.8385 15.9847 48.7949 15.8754 48.769 15.8085C48.6704 15.5547 48.4635 15.1464 48.4246 15.1291C48.4023 15.1191 48.3841 15.0871 48.3841 15.0578C48.3841 14.9563 48.0388 14.4973 47.6857 14.1298C47.1893 13.613 46.8274 13.3523 46.1701 13.0385C46.0067 12.9604 45.8308 12.8744 45.7793 12.8473C45.7277 12.8202 45.6381 12.798 45.58 12.798C45.522 12.798 45.4595 12.7737 45.4411 12.744C45.4227 12.7143 45.3347 12.69 45.2453 12.69C45.1561 12.69 45.042 12.6686 44.9921 12.6424C44.8839 12.5859 44.1028 12.5486 43.4972 12.5711ZM10.4831 15.1592C11.1712 15.3507 12.1501 16.1956 12.1501 16.598C12.1501 16.643 12.1744 16.6947 12.2041 16.713C12.2338 16.7314 12.2581 16.8043 12.2581 16.875C12.2581 16.9458 12.2824 17.0187 12.3121 17.037C12.4094 17.0972 12.373 17.8661 12.2534 18.2732C12.0704 18.8961 11.7643 19.3457 11.3101 19.6581L11.0809 19.8159L11.089 19.542C11.0982 19.2317 10.9076 19.0088 10.6327 19.0083C9.6773 19.0064 8.42909 17.7262 8.42464 16.7435C8.42369 16.5242 8.2243 16.362 7.95565 16.362C7.32493 16.362 8.47877 15.319 9.24881 15.1932C9.36086 15.1748 9.4667 15.1369 9.48398 15.1088C9.52178 15.0478 10.2069 15.0822 10.4831 15.1592ZM44.6659 15.1593C45.7092 15.4496 46.5481 16.5177 46.5481 17.5557C46.5481 18.3275 46.0853 19.25 45.4943 19.6566L45.2629 19.8159L45.271 19.542C45.2804 19.2238 45.0887 19.0095 44.7931 19.0075C44.6288 19.0064 44.2588 18.8967 44.1911 18.829C44.1707 18.8086 44.1157 18.7918 44.0686 18.7915C43.7821 18.7897 42.9555 17.9348 42.7862 17.4651C42.6573 17.1075 42.6061 16.914 42.6061 16.784C42.6061 16.5363 42.4149 16.362 42.1432 16.362C41.5015 16.362 42.6479 15.3177 43.4261 15.1932C43.5407 15.1748 43.6487 15.1369 43.666 15.1088C43.7038 15.0477 44.3889 15.0824 44.6659 15.1593Z" fill="#363E2E"/>
<path id="path1" fill-rule="evenodd" clip-rule="evenodd" d="M13.0954 4.21162C13.0769 4.24159 12.9917 4.26602 12.9061 4.26602C12.8205 4.26602 12.7354 4.29032 12.7171 4.32002C12.6987 4.34972 12.6243 4.37402 12.5518 4.37402C12.4793 4.37402 12.4201 4.39832 12.4201 4.42802C12.4201 4.45772 12.3472 4.48202 12.2581 4.48202C12.169 4.48202 12.0961 4.50632 12.0961 4.53602C12.0961 4.56572 12.0125 4.59002 11.9103 4.59002C11.8081 4.59002 11.7094 4.61432 11.6911 4.64402C11.6727 4.67372 11.5998 4.69802 11.5291 4.69802C11.4583 4.69802 11.3854 4.72232 11.3671 4.75202C11.3487 4.78172 11.2622 4.80602 11.1748 4.80602C11.0875 4.80602 11.0161 4.83032 11.0161 4.86002C11.0161 4.88972 10.9447 4.91402 10.8573 4.91402C10.77 4.91402 10.6834 4.93832 10.6651 4.96802C10.6467 4.99772 10.5602 5.02202 10.4728 5.02202C10.3855 5.02202 10.3141 5.04632 10.3141 5.07602C10.3141 5.10572 10.2412 5.13002 10.1521 5.13002C10.063 5.13002 9.99008 5.15432 9.99008 5.18402C9.99008 5.21372 9.91718 5.23802 9.82808 5.23802C9.73899 5.23802 9.66608 5.26232 9.66608 5.29202C9.66608 5.32172 9.58252 5.34602 9.48032 5.34602C9.37813 5.34602 9.27944 5.37032 9.26108 5.40002C9.24272 5.42972 9.15619 5.45402 9.06884 5.45402C8.9815 5.45402 8.91008 5.47832 8.91008 5.50802C8.91008 5.53772 8.85082 5.56202 8.77833 5.56202C8.70583 5.56202 8.63185 5.58578 8.61389 5.61467C8.59337 5.64788 8.90239 5.67286 9.44779 5.68217C10.2227 5.6954 10.615 5.7683 10.2061 5.82311C10.1318 5.83297 10.048 5.86334 10.0198 5.89061C9.99157 5.91775 9.91408 5.94002 9.84752 5.94002C9.78097 5.94002 9.71144 5.96432 9.69308 5.99402C9.67472 6.02372 9.61222 6.04802 9.55417 6.04802C9.49612 6.04802 9.40648 6.07016 9.35491 6.0973C9.30334 6.1243 8.67788 6.33368 7.96508 6.56237C7.25228 6.79106 6.20738 7.13099 5.64308 7.31783C4.21762 7.78966 4.2353 7.78601 2.37608 7.99364C2.09393 8.02523 1.69136 8.07343 1.48144 8.1007C1.09709 8.15078 0.722739 8.12324 0.671979 8.04116C0.543999 7.83394 0.486084 8.09152 0.486084 8.86898V9.68033L1.39058 9.65968L2.29508 9.63902V11.88V14.121L1.39058 14.1004L0.486084 14.0797V15.9287C0.486084 17.5924 0.494589 17.7743 0.571539 17.7448C0.618519 17.7267 1.53908 17.712 2.61746 17.712H4.57793L4.60871 17.3475C4.64827 16.8779 4.77287 16.2197 4.86413 15.9975C4.89167 15.9307 4.93528 15.8213 4.9612 15.7545C5.05975 15.5007 5.2667 15.0923 5.30558 15.0751C5.32786 15.0651 5.34608 15.0271 5.34608 14.9907C5.34608 14.9542 5.38861 14.8773 5.44058 14.8196C5.49256 14.762 5.60731 14.6177 5.69546 14.499C6.22912 13.7807 7.20004 13.0684 8.01908 12.7942C8.13788 12.7546 8.25817 12.7026 8.28638 12.679C8.3146 12.6553 8.40086 12.636 8.47808 12.636C8.5553 12.636 8.64157 12.614 8.66978 12.587C8.83624 12.4279 10.8207 12.4277 10.9864 12.5867C11.0146 12.6139 11.1042 12.636 11.1856 12.636C11.267 12.636 11.3487 12.6603 11.3671 12.69C11.3854 12.7197 11.4479 12.744 11.506 12.744C11.564 12.744 11.6537 12.7656 11.7053 12.7921C11.7568 12.8185 11.9206 12.8975 12.0691 12.9676C12.2176 13.0376 12.3472 13.1132 12.357 13.1355C12.367 13.1578 12.3988 13.176 12.4275 13.176C12.6125 13.176 13.5031 13.9343 13.88 14.4125C14.2059 14.826 14.6881 15.7019 14.6881 15.8803C14.6881 15.9338 14.7124 15.9927 14.7421 16.011C14.7718 16.0294 14.7961 16.0989 14.7961 16.1655C14.7961 16.232 14.818 16.3095 14.8446 16.3377C14.9039 16.4006 14.9565 16.7392 14.9929 17.2935L15.0203 17.712H26.8895H38.7587L38.7925 17.4285C38.8239 17.1628 38.8845 16.7658 38.9653 16.294C38.9844 16.1823 39.0217 16.0777 39.048 16.0614C39.0745 16.045 39.0961 15.9723 39.0961 15.8998C39.0961 15.8273 39.1204 15.768 39.1501 15.768C39.1798 15.768 39.2041 15.7073 39.2041 15.633C39.2041 15.5588 39.2284 15.498 39.2581 15.498C39.2878 15.498 39.3121 15.4514 39.3121 15.3945C39.3121 15.3376 39.3303 15.283 39.3526 15.273C39.3749 15.2631 39.4521 15.1457 39.524 15.012C39.5961 14.8784 39.669 14.7569 39.686 14.742C39.7032 14.7272 39.8143 14.5937 39.9331 14.4453C40.5356 13.6931 41.2969 13.1417 42.2281 12.7834C42.3023 12.7548 42.4053 12.71 42.4569 12.6837C42.5085 12.6575 42.6069 12.636 42.6756 12.636C42.7443 12.636 42.8236 12.614 42.8518 12.587C43.0212 12.425 45.075 12.4265 45.1751 12.5886C45.1912 12.6147 45.2745 12.636 45.3601 12.636C45.4457 12.636 45.5307 12.6603 45.5491 12.69C45.5674 12.7197 45.6299 12.744 45.688 12.744C45.746 12.744 45.8357 12.7656 45.8873 12.7921C45.9388 12.8185 46.1026 12.8968 46.2511 12.966C46.9945 13.3122 48.1658 14.3277 48.3247 14.7638C48.3366 14.7963 48.3609 14.8352 48.3787 14.85C48.4424 14.9032 48.7271 15.4471 48.8238 15.7005C48.8493 15.7673 48.8916 15.8767 48.9179 15.9435C48.9676 16.0695 49.0325 16.3126 49.1346 16.7543C49.1674 16.8958 49.1941 17.1692 49.1941 17.3618V17.712H50.7618C52.2067 17.712 52.3319 17.7046 52.361 17.6175C52.4389 17.3849 52.5177 17.226 52.5553 17.226C52.5777 17.226 52.5961 17.1925 52.5961 17.1516C52.5961 17.1107 52.6378 16.9832 52.689 16.8681C52.74 16.7531 52.786 16.6347 52.7912 16.605C52.8156 16.4661 52.8824 16.308 52.9166 16.308C52.9375 16.308 52.9876 16.1865 53.0281 16.038C53.0686 15.8895 53.1215 15.768 53.1458 15.768C53.1702 15.768 53.1901 15.7194 53.1901 15.66C53.1901 15.6006 53.2144 15.552 53.2441 15.552C53.3321 15.552 53.3055 15.3505 53.2126 15.3148C53.1656 15.2967 52.4731 15.282 51.6736 15.282H50.2201V14.7733V14.2645L51.5116 14.2468C52.6644 14.2309 53.051 14.1892 52.8164 14.106C52.7742 14.0911 52.6717 14.0094 52.5887 13.9245C52.5056 13.8395 52.4234 13.77 52.406 13.77C52.332 13.77 52.0059 13.5143 52.0384 13.4818C52.058 13.4621 52.0372 13.446 51.9921 13.446C51.947 13.446 51.8339 13.3731 51.7406 13.284C51.6473 13.1949 51.5492 13.122 51.5223 13.122C51.4954 13.122 51.3969 13.0503 51.3032 12.9629C51.2094 12.8754 51.1238 12.8086 51.1127 12.8144C51.1018 12.8202 51.0313 12.7717 50.9564 12.7064C50.8238 12.5912 50.5206 12.4154 50.4624 12.4202C50.4466 12.4214 50.3743 12.3631 50.3016 12.2904C50.229 12.2178 50.1202 12.1427 50.0598 12.1236C49.9995 12.1044 49.9501 12.0661 49.9501 12.0384C49.9501 12.0107 49.9126 11.988 49.8668 11.988C49.821 11.988 49.7314 11.9394 49.6677 11.88C49.6039 11.8206 49.5198 11.772 49.481 11.772C49.4419 11.772 49.4101 11.7477 49.4101 11.718C49.4101 11.6883 49.3615 11.664 49.3021 11.664C49.2427 11.664 49.1941 11.6397 49.1941 11.61C49.1941 11.5803 49.1455 11.556 49.0861 11.556C49.0267 11.556 48.9781 11.5317 48.9781 11.502C48.9781 11.4723 48.9295 11.448 48.8701 11.448C48.8107 11.448 48.7621 11.4237 48.7621 11.394C48.7621 11.3643 48.7135 11.34 48.6541 11.34C48.5947 11.34 48.5461 11.3157 48.5461 11.286C48.5461 11.2563 48.4853 11.232 48.4111 11.232C48.3368 11.232 48.2761 11.2077 48.2761 11.178C48.2761 11.1483 48.2153 11.124 48.1411 11.124C48.0668 11.124 48.0061 11.105 48.0061 11.0818C48.0061 11.0585 47.8967 11.0072 47.7631 10.9678C47.6294 10.9284 47.5201 10.8745 47.5201 10.8481C47.5201 10.8216 47.4472 10.8 47.3581 10.8C47.269 10.8 47.1961 10.7757 47.1961 10.746C47.1961 10.7163 47.1252 10.692 47.0385 10.692C46.952 10.692 46.873 10.6688 46.863 10.6405C46.8532 10.612 46.754 10.5827 46.6426 10.5754C46.5312 10.568 46.4401 10.5426 46.4401 10.519C46.4401 10.4953 46.3687 10.476 46.2813 10.476C46.194 10.476 46.1091 10.4543 46.0926 10.4277C46.0763 10.4011 45.9715 10.3657 45.86 10.3489C45.7483 10.332 45.5113 10.2915 45.3331 10.2588C45.1549 10.226 44.8951 10.1943 44.756 10.1881C44.6168 10.1819 44.4858 10.1597 44.465 10.1389C44.4442 10.1181 42.9179 10.1005 41.0732 10.0996C39.2284 10.0987 37.4286 10.082 37.0735 10.0622L36.4279 10.0266L35.6965 9.53318C35.2942 9.2617 34.6306 8.80999 34.2218 8.52932C33.4409 7.99324 32.1646 7.12006 30.9237 6.27293C30.0659 5.68757 30.0628 5.67002 30.8134 5.67002C31.1777 5.67002 31.3685 5.65072 31.3471 5.61602C31.3287 5.58632 31.2651 5.56202 31.2057 5.56202C31.1463 5.56202 31.1127 5.53772 31.1311 5.50802C31.15 5.47751 31.1057 5.45402 31.0294 5.45402C30.9552 5.45402 30.8794 5.42972 30.8611 5.40002C30.8427 5.37032 30.7805 5.34602 30.7228 5.34602C30.6652 5.34602 30.6181 5.32172 30.6181 5.29202C30.6181 5.26232 30.5573 5.23802 30.4831 5.23802C30.4088 5.23802 30.3481 5.21372 30.3481 5.18402C30.3481 5.15432 30.2873 5.13002 30.2131 5.13002C30.1388 5.13002 30.0781 5.10572 30.0781 5.07602C30.0781 5.04632 30.0037 5.02202 29.9128 5.02202C29.8166 5.02202 29.7616 4.99948 29.7811 4.96802C29.8009 4.93576 29.7356 4.91402 29.6191 4.91402C29.5026 4.91402 29.4372 4.89229 29.4571 4.86002C29.4765 4.82857 29.4227 4.80602 29.3284 4.80602C29.2393 4.80602 29.1514 4.78172 29.1331 4.75202C29.1147 4.72232 29.016 4.69802 28.9138 4.69802C28.8116 4.69802 28.7281 4.67372 28.7281 4.64402C28.7281 4.61432 28.6309 4.59002 28.5121 4.59002C28.3933 4.59002 28.2961 4.57031 28.2961 4.54615C28.2961 4.52198 28.1807 4.49633 28.0396 4.48918C27.8985 4.48202 27.775 4.45327 27.7651 4.42519C27.7551 4.39697 27.6412 4.37402 27.5117 4.37402C27.3824 4.37402 27.2614 4.34972 27.2431 4.32002C27.2247 4.29032 27.041 4.26602 26.8348 4.26602C26.6249 4.26602 26.4601 4.24267 26.4601 4.21283C26.4601 4.13845 13.1413 4.13723 13.0954 4.21162ZM25.8931 5.7683C26.1307 5.80016 26.398 5.84039 26.4871 5.85794C26.5762 5.87536 26.7827 5.91491 26.9461 5.94583C27.5339 6.05707 28.2885 6.25336 28.9434 6.46517C29.7243 6.71762 30.9611 7.26235 31.6576 7.66033C31.769 7.72391 31.947 7.8253 32.0533 7.88551C32.9695 8.40445 34.9569 9.85745 34.8216 9.90943C34.6771 9.96478 26.6665 9.89795 26.3251 9.83855C26.1469 9.8075 25.831 9.7558 25.6231 9.7238C25.2568 9.66724 25.0134 9.62876 24.2191 9.50132C24.0112 9.46798 23.7074 9.42032 23.5441 9.39535C22.699 9.26642 22.4661 9.2293 22.1941 9.18043C21.5493 9.0646 21.1758 9.00911 20.7361 8.96402C20.4836 8.9381 20.1191 8.89193 19.9261 8.86115C19.733 8.83051 19.4171 8.78164 19.2241 8.75261C19.031 8.72359 18.7394 8.67445 18.5761 8.64353C18.2195 8.5759 17.3771 8.43496 16.9291 8.36786C16.2407 8.26486 15.836 8.20249 15.4981 8.14768C15.305 8.11636 15.0134 8.07032 14.8501 8.04535C14.2839 7.95895 13.7955 7.88321 13.4731 7.83164C13.2949 7.80329 12.979 7.75388 12.7711 7.72202C12.5632 7.69016 12.2473 7.64075 12.0691 7.6124C11.8909 7.58392 11.5871 7.53694 11.3941 7.50805C11.201 7.47916 10.8851 7.43056 10.6921 7.40005C10.499 7.36954 10.1798 7.32323 9.98266 7.29718C9.4868 7.2317 9.33722 7.1156 9.65259 7.04095C9.73426 7.02164 10.2142 6.88516 10.7191 6.73787C11.224 6.59045 11.7221 6.44654 11.8261 6.41792C12.2046 6.31384 12.3448 6.27361 12.6361 6.18518C13.1764 6.02116 13.578 5.90249 13.8241 5.83405C13.9577 5.79692 14.1157 5.7463 14.1751 5.72146C14.3364 5.65396 25.3685 5.69824 25.8931 5.7683ZM4.0922 9.86852C4.15552 10.0096 4.24745 10.2222 4.29632 10.341C4.34506 10.4598 4.44334 10.6853 4.51462 10.8421C4.58576 10.9989 4.64408 11.1381 4.64408 11.1513C4.64408 11.1645 4.71266 11.3277 4.79663 11.5142C5.0642 12.109 5.09282 12.1994 5.03639 12.2715C5.00737 12.3086 4.91084 12.4727 4.82188 12.636C4.73278 12.7994 4.60777 13.0241 4.54405 13.1355C4.42255 13.3476 4.27243 13.6122 4.14971 13.8301C3.98231 14.1274 3.94357 14.148 3.55571 14.148H3.18608V11.88V9.61202H3.5815H3.97678L4.0922 9.86852ZM21.3031 11.0685C21.617 11.1139 22.1213 11.1906 22.7341 11.286C23.3166 11.3767 23.8463 11.4575 24.1921 11.508C24.3851 11.5363 24.6889 11.5822 24.8671 11.61C25.0453 11.6378 25.349 11.6837 25.5421 11.7121C25.8878 11.7626 26.4176 11.8433 27.0001 11.934C27.1634 11.9595 27.4672 12.0054 27.6751 12.0364C27.883 12.0671 28.4662 12.1547 28.9711 12.2309C29.476 12.307 30.3751 12.4419 30.9691 12.5303C31.5631 12.6187 32.2799 12.7274 32.5621 12.7716C32.8442 12.8158 33.2452 12.8771 33.4531 12.9079C33.661 12.9387 33.983 12.9873 34.1686 13.0159C35.2135 13.1772 35.5044 13.2211 36.2881 13.3357C37.3852 13.4961 37.403 13.5066 37.2388 13.8996C37.0261 14.4087 36.6685 14.4804 35.1811 14.3119C34.6168 14.2481 33.9485 14.173 33.6961 14.1453C33.4436 14.1176 33.0305 14.0703 32.7781 14.04C32.5256 14.0098 32.0882 13.9597 31.8061 13.9286C31.5239 13.8977 31.0865 13.8485 30.8341 13.8194C30.5816 13.7903 30.1685 13.744 29.9161 13.7166C29.6636 13.6892 29.2505 13.641 28.9981 13.6094C28.7456 13.5779 28.3204 13.529 28.0531 13.5008C27.5051 13.4429 26.8906 13.3734 26.1361 13.284C25.5028 13.209 24.8483 13.1342 24.2461 13.068C23.9936 13.0403 23.5562 12.9912 23.2741 12.9588C22.9919 12.9265 22.5667 12.8788 22.3291 12.8527L21.8971 12.8052L21.2896 13.1051C20.6428 13.4244 20.5972 13.4799 20.8306 13.662C20.9123 13.7257 21.2224 14.013 21.5198 14.3004C22.4477 15.1974 22.3442 15.1304 22.8804 15.1802C23.3481 15.2237 23.8841 15.2813 24.7861 15.3854C25.0385 15.4145 25.4881 15.4652 25.7851 15.498C26.0821 15.5308 26.5195 15.5794 26.7571 15.606C26.9947 15.6326 27.4321 15.6812 27.7291 15.714C28.0261 15.7468 28.4756 15.7969 28.7281 15.8253C28.9805 15.8536 29.4179 15.9015 29.7001 15.9318C30.364 16.0029 31.0163 16.0753 31.5901 16.1414C32.0388 16.1931 32.4691 16.2413 33.5611 16.362C37.3358 16.7793 37.1004 16.7412 37.3597 16.9763C37.8657 17.4349 37.7527 17.6274 37.0036 17.583C36.6546 17.5623 35.9803 17.5229 35.5051 17.4953C35.0299 17.4678 34.2401 17.4197 33.7501 17.3886C32.7971 17.3279 31.586 17.256 30.1051 17.1719C29.6002 17.1433 27.7655 17.035 26.0281 16.9316C24.2906 16.828 22.4074 16.718 21.8431 16.6871C20.3943 16.6076 20.4881 16.6324 20.1885 16.2481C20.0276 16.0415 18.7567 14.4381 18.524 14.148C18.4407 14.0441 18.1126 13.6311 17.7951 13.2302L17.2178 12.5014L17.6146 12.3122C17.8328 12.2082 18.1202 12.0767 18.2532 12.0202C18.3863 11.9636 18.6166 11.863 18.7651 11.7967C19.0633 11.6635 19.4205 11.5046 19.8721 11.3041C20.0354 11.2315 20.2663 11.125 20.3851 11.0672C20.531 10.9963 20.6624 10.9719 20.7901 10.992C20.894 11.0083 21.1249 11.0429 21.3031 11.0685Z" fill="#41479B"/>
<path id="path2" fill-rule="evenodd" clip-rule="evenodd" d="M8.36285 5.69514C8.34908 5.70905 8.25296 5.73078 8.14928 5.74374C8.0456 5.75657 7.86767 5.80597 7.75387 5.85349C7.63993 5.90115 7.51154 5.94003 7.46861 5.94003C7.42555 5.94003 7.35602 5.97432 7.31404 6.01617C7.27219 6.05815 7.18889 6.07962 7.12895 6.06396C7.06766 6.04789 7.02001 6.0618 7.02001 6.09568C7.02001 6.12889 6.93901 6.15603 6.84005 6.15603C6.74096 6.15603 6.64322 6.1729 6.62257 6.19342C6.60205 6.21394 6.53225 6.23892 6.46745 6.24877C6.40265 6.25863 6.3365 6.28536 6.3203 6.30818C6.30424 6.33099 6.21811 6.35488 6.12901 6.36123C6.03991 6.36771 5.864 6.42131 5.73805 6.48044C5.61223 6.5397 5.4374 6.58803 5.34979 6.58803C5.26217 6.58803 5.17537 6.61233 5.15701 6.64203C5.13865 6.67173 5.06426 6.69603 4.99177 6.69603C4.91927 6.69603 4.86001 6.72033 4.86001 6.75003C4.86001 6.77973 4.77496 6.80403 4.67101 6.80403C4.56706 6.80403 4.48201 6.82833 4.48201 6.85803C4.48201 6.88773 4.39088 6.91243 4.27951 6.91284C4.12885 6.91351 4.0978 6.92715 4.15801 6.96603C4.21727 7.00437 4.17758 7.01855 4.00951 7.01922C3.88328 7.01962 3.78001 7.04271 3.78001 7.07038C3.78001 7.09819 3.71507 7.12857 3.63569 7.13788C3.55631 7.14733 3.48139 7.1854 3.46924 7.22253C3.43684 7.32108 3.72236 7.30825 3.7603 7.20943C3.78082 7.15624 3.8332 7.13937 3.91474 7.15975C3.98264 7.1769 4.05446 7.16448 4.07431 7.13235C4.09415 7.10035 4.1819 7.07403 4.26925 7.07403C4.35659 7.07403 4.42801 7.04973 4.42801 7.02003C4.42801 6.99033 4.49942 6.96603 4.58677 6.96603C4.67411 6.96603 4.76065 6.94173 4.77901 6.91203C4.79737 6.88233 4.88242 6.85803 4.96801 6.85803C5.0536 6.85803 5.13865 6.83373 5.15701 6.80403C5.17537 6.77433 5.24827 6.75003 5.31901 6.75003C5.38975 6.75003 5.46265 6.72573 5.48101 6.69603C5.49937 6.66633 5.57443 6.64203 5.64787 6.64203C5.72131 6.64203 5.79367 6.6099 5.80879 6.57075C5.82566 6.5266 5.89465 6.50797 5.98969 6.52188C6.07406 6.5343 6.15965 6.51783 6.17977 6.48516C6.19988 6.45262 6.2879 6.42603 6.37525 6.42603C6.46259 6.42603 6.53401 6.40173 6.53401 6.37203C6.53401 6.34233 6.60691 6.31803 6.69601 6.31803C6.78511 6.31803 6.85801 6.29373 6.85801 6.26403C6.85801 6.23433 6.92942 6.21003 7.01677 6.21003C7.10412 6.21003 7.19065 6.18573 7.20901 6.15603C7.22737 6.12633 7.3139 6.10203 7.40125 6.10203C7.48859 6.10203 7.56001 6.07773 7.56001 6.04803C7.56001 6.01833 7.64506 5.99403 7.74901 5.99403C7.85296 5.99403 7.93801 5.96973 7.93801 5.94003C7.93801 5.91033 8.01091 5.88603 8.10001 5.88603C8.18911 5.88603 8.26201 5.86173 8.26201 5.83203C8.26201 5.80233 8.34706 5.77803 8.45101 5.77803C8.55496 5.77803 8.64001 5.75373 8.64001 5.72403C8.64001 5.67057 8.41132 5.64681 8.36285 5.69514ZM8.81551 5.70729C8.86749 5.72079 8.95253 5.72079 9.00451 5.70729C9.05648 5.69365 9.01396 5.68258 8.91001 5.68258C8.80606 5.68258 8.76353 5.69365 8.81551 5.70729ZM9.35551 5.70972C9.49658 5.72079 9.72744 5.72079 9.86851 5.70972C10.0096 5.69865 9.89416 5.68947 9.61201 5.68947C9.32986 5.68947 9.21443 5.69865 9.35551 5.70972ZM14.6911 5.71323C14.8623 5.72754 15.0254 5.87172 16.1983 7.04527L17.5136 8.36139L17.1673 8.33142C16.9768 8.31509 16.7801 8.28052 16.73 8.25474C16.6801 8.22909 16.5052 8.20803 16.3418 8.20803C16.1781 8.20803 16.0294 8.18373 16.011 8.15403C15.9927 8.12433 15.8381 8.10003 15.6676 8.10003C15.4971 8.10003 15.3345 8.07789 15.3063 8.05075C15.2781 8.02375 15.1092 7.9869 14.931 7.96895C14.114 7.887 14.0099 7.87147 13.9617 7.8253C13.9335 7.79817 13.771 7.77603 13.6005 7.77603C13.4299 7.77603 13.2754 7.75173 13.257 7.72203C13.2387 7.69233 13.0841 7.66803 12.9136 7.66803C12.7431 7.66803 12.5805 7.64589 12.5523 7.61875C12.5241 7.59175 12.3613 7.55531 12.1905 7.53776C12.0197 7.52034 11.7403 7.49172 11.5695 7.47431C11.3987 7.45676 11.2359 7.4203 11.2077 7.3933C11.1795 7.36617 11.0203 7.34403 10.854 7.34403C10.6877 7.34403 10.5285 7.32108 10.5003 7.293C10.4721 7.26492 10.3032 7.23454 10.125 7.2255C9.90131 7.21416 9.80519 7.1881 9.81451 7.14153C9.82193 7.1044 9.77941 7.07403 9.72001 7.07403C9.66061 7.07403 9.61201 7.11008 9.61201 7.15395C9.61201 7.23833 9.68801 7.26262 10.125 7.3177C10.2735 7.33647 10.5287 7.37251 10.692 7.39789C10.8554 7.42327 11.1713 7.47188 11.394 7.50603C11.6168 7.54019 11.9327 7.58878 12.096 7.61403C12.2594 7.63927 12.5753 7.68787 12.798 7.72203C13.0208 7.75618 13.3427 7.80654 13.5135 7.83408C13.6843 7.86148 13.9637 7.90658 14.1345 7.93398C14.4191 7.97975 14.7465 8.03051 15.552 8.15336C15.7154 8.17833 16.013 8.22517 16.2135 8.25744C16.414 8.2897 16.7299 8.33857 16.9155 8.36625C17.1011 8.39379 17.496 8.45697 17.793 8.50652C18.4227 8.61168 18.6956 8.64732 18.5625 8.60682C18.4803 8.58184 18.468 8.50422 18.468 8.01241C18.468 7.29367 18.4767 7.30893 17.5816 6.43831L16.8472 5.72403H18.7106H20.574V6.73761V7.75105L21.1953 8.38461C21.8267 9.02842 21.8692 9.13831 21.4211 8.96781C21.2676 8.90949 20.0981 8.83024 20.1496 8.88168C20.1686 8.90071 20.4238 8.93878 20.7166 8.96646C21.219 9.01384 21.4923 9.05327 22.194 9.18017C22.4659 9.22931 22.6954 9.26589 23.544 9.39535C23.7074 9.42033 24.0111 9.46799 24.219 9.50133C25.0133 9.62877 25.2568 9.66724 25.623 9.72381C25.8309 9.7558 26.1468 9.80751 26.325 9.83856C26.7103 9.90566 34.7182 9.96141 34.7821 9.89755C34.8054 9.8742 33.058 9.85327 30.8988 9.85111C28.7396 9.84909 26.8951 9.82816 26.7999 9.80494C26.6706 9.77322 26.1106 9.2536 24.5924 7.75672L22.5582 5.75103L23.3076 5.72403C23.7198 5.70918 21.9065 5.69703 19.278 5.69703C16.6496 5.69703 14.5854 5.70432 14.6911 5.71323ZM30.5979 5.71026L30.1729 5.72875L30.7329 6.12066C31.041 6.33612 31.9127 6.93538 32.67 7.4523C33.4274 7.96921 34.528 8.7213 35.1158 9.1236C35.7037 9.5259 36.2505 9.8958 36.3308 9.94548C36.5147 10.0594 38.232 10.1551 38.232 10.0516C38.232 10.0177 38.1941 9.99003 38.1478 9.99003C38.098 9.99003 38.0793 9.96465 38.1021 9.92766C38.1252 9.8904 38.1171 9.88 38.0819 9.90174C38.0495 9.92172 37.9607 9.87582 37.8845 9.79955C37.8084 9.72341 37.746 9.68912 37.746 9.72327C37.746 9.75742 37.6731 9.70747 37.584 9.61203C37.4949 9.51658 37.422 9.45462 37.422 9.47406C37.422 9.49363 37.3407 9.4476 37.2414 9.37173C37.142 9.29599 37.0381 9.23403 37.0104 9.23403C36.9826 9.23403 36.9248 9.18543 36.882 9.12603C36.8392 9.06663 36.7717 9.01803 36.7319 9.01803C36.6922 9.01803 36.6747 8.99373 36.693 8.96403C36.7114 8.93433 36.6922 8.91003 36.6506 8.91003C36.6089 8.91003 36.5307 8.86143 36.477 8.80203C36.4233 8.74263 36.3466 8.69403 36.3066 8.69403C36.2667 8.69403 36.234 8.67135 36.234 8.64367C36.234 8.616 36.1855 8.57793 36.1263 8.55916C36.0672 8.5404 35.9849 8.49112 35.9436 8.44995C35.8624 8.36868 35.609 8.20924 35.3295 8.06358C35.233 8.01322 35.154 7.9522 35.154 7.92804C35.154 7.90387 35.1173 7.88403 35.0725 7.88403C35.0276 7.88403 34.9148 7.81113 34.8215 7.72203C34.7282 7.63293 34.6177 7.56003 34.5758 7.56003C34.534 7.56003 34.5147 7.53573 34.533 7.50603C34.5514 7.47633 34.5288 7.45203 34.4828 7.45203C34.4088 7.45203 34.3182 7.3933 34.1084 7.20903C34.0747 7.17933 33.9806 7.12074 33.8995 7.07889C33.8182 7.03704 33.7038 6.95806 33.6451 6.90339C33.5865 6.84871 33.5193 6.80403 33.4958 6.80403C33.4723 6.80389 33.3831 6.74369 33.2975 6.67011C33.2119 6.59654 33.1252 6.54672 33.1048 6.55928C33.0843 6.57197 33.0336 6.53498 32.992 6.4772C32.9503 6.41928 32.8729 6.37203 32.8201 6.37203C32.7672 6.37203 32.724 6.35178 32.724 6.32721C32.724 6.3025 32.6572 6.24783 32.5755 6.20571C32.4938 6.16359 32.4149 6.11702 32.4 6.10217C32.3644 6.06626 31.7353 5.75859 31.689 5.7544C31.6693 5.75251 31.6348 5.7328 31.6126 5.71053C31.5903 5.68825 31.4485 5.67489 31.2975 5.68083C31.1465 5.6869 30.8317 5.70014 30.5979 5.71026ZM14.175 5.77803L14.067 5.82447L14.175 5.82744C14.2344 5.82906 14.3195 5.80678 14.364 5.77803C14.4713 5.70864 14.3365 5.70864 14.175 5.77803ZM24.759 5.77803C24.8481 5.80071 25.1276 5.81839 25.38 5.81745L25.839 5.81556L25.488 5.77614C24.9955 5.72079 24.5387 5.722 24.759 5.77803ZM9.85501 5.83203C9.81559 5.89588 9.86837 5.89588 10.017 5.83203C10.1211 5.78734 10.1208 5.78545 10.0068 5.78181C9.94168 5.77978 9.87337 5.80233 9.85501 5.83203ZM13.797 5.88603C13.7006 5.92748 13.7045 5.93287 13.8343 5.93625C13.9142 5.93827 13.9947 5.91573 14.013 5.88603C14.0528 5.8215 13.947 5.8215 13.797 5.88603ZM25.92 5.88279C25.9928 5.93274 26.5637 5.96852 26.5096 5.91978C26.4971 5.90871 26.3412 5.88333 26.163 5.86335C25.934 5.83784 25.8628 5.84364 25.92 5.88279ZM9.53101 5.94003C9.49159 6.00388 9.54438 6.00388 9.69301 5.94003C9.7971 5.89534 9.79683 5.89346 9.68275 5.88981C9.61768 5.88779 9.54937 5.91033 9.53101 5.94003ZM12.852 6.16426C12.4511 6.28333 12.0501 6.40105 11.961 6.42589C11.8719 6.45073 11.5439 6.54807 11.232 6.64203C10.9202 6.73599 10.5841 6.83306 10.4852 6.85776C10.2592 6.91419 10.1752 6.99438 10.395 6.94416C10.5431 6.91027 11.1179 6.74571 11.448 6.6427C11.5223 6.61948 11.6924 6.57021 11.826 6.53309C11.9597 6.49596 12.2027 6.42346 12.366 6.37203C12.5294 6.32059 12.7724 6.24837 12.906 6.21165C13.0397 6.17493 13.2048 6.12296 13.2731 6.09636C13.3413 6.06977 13.4432 6.04803 13.4993 6.04803C13.5556 6.04803 13.6167 6.02373 13.635 5.99403C13.6814 5.91897 13.6696 5.92153 12.852 6.16426ZM26.622 5.98998C26.6666 6.02103 26.7863 6.04682 26.8882 6.04722C26.99 6.04763 27.148 6.07071 27.2392 6.09839C27.3304 6.12606 27.5144 6.17668 27.648 6.21084C28.4232 6.40902 28.6808 6.483 28.7948 6.54065C28.8464 6.5667 28.9208 6.58803 28.9601 6.58803C28.9995 6.58803 29.307 6.69805 29.6434 6.83238C29.98 6.96684 30.2675 7.06458 30.2824 7.04959C30.2972 7.03474 30.2635 7.00721 30.2072 6.98844C30.151 6.96968 30.002 6.90839 29.8761 6.85223C29.7502 6.79607 29.6223 6.75003 29.5919 6.75003C29.5615 6.75003 29.4944 6.72694 29.4428 6.69859C29.0025 6.45694 26.3274 5.78505 26.622 5.98998ZM9.20701 6.04803C9.16759 6.11188 9.22038 6.11188 9.36901 6.04803C9.47309 6.00334 9.47282 6.00145 9.35875 5.99781C9.29368 5.99578 9.22537 6.01833 9.20701 6.04803ZM8.85601 6.15603C8.78405 6.20261 8.78405 6.20841 8.85601 6.20841C8.90056 6.20841 8.97346 6.18479 9.01801 6.15603C9.08996 6.10946 9.08996 6.10365 9.01801 6.10365C8.97346 6.10365 8.90056 6.12728 8.85601 6.15603ZM8.53201 6.26403C8.46005 6.3106 8.46005 6.31641 8.53201 6.31641C8.57656 6.31641 8.64946 6.29278 8.69401 6.26403C8.76596 6.21745 8.76596 6.21165 8.69401 6.21165C8.64946 6.21165 8.57656 6.23527 8.53201 6.26403ZM8.20801 6.37203C8.13605 6.4186 8.13605 6.42441 8.20801 6.42441C8.25256 6.42441 8.32546 6.40078 8.37001 6.37203C8.44196 6.32545 8.44196 6.31965 8.37001 6.31965C8.32546 6.31965 8.25256 6.34327 8.20801 6.37203ZM6.56101 6.89407C5.78881 7.14666 5.11475 7.37562 5.06318 7.40276C5.01161 7.42989 4.92197 7.45203 4.86392 7.45203C4.80587 7.45203 4.74337 7.47633 4.72501 7.50603C4.70665 7.53573 4.63375 7.56003 4.56301 7.56003C4.49227 7.56003 4.42099 7.58163 4.40465 7.60809C4.38832 7.63441 4.28369 7.67235 4.17205 7.6922C3.9817 7.72608 3.79202 7.7489 2.56501 7.88633C1.63445 7.99055 1.35001 8.00364 1.35001 7.94248C1.35001 7.87944 1.12091 7.86121 1.06246 7.91953C1.04288 7.93911 1.05449 7.98825 1.08811 8.02875C1.13644 8.08707 1.13063 8.09531 1.0607 8.06844C1.01183 8.04981 0.972009 8.01106 0.972009 7.98244C0.972009 7.95396 0.922464 7.9383 0.861849 7.94775C0.801234 7.9572 0.753174 7.98933 0.754929 8.01903C0.760734 8.1196 1.05139 8.15416 1.45801 8.10259C1.68076 8.07438 2.09386 8.02551 2.37601 7.99392C2.65816 7.9622 3.11986 7.91049 3.40201 7.87876C3.78082 7.83637 4.24711 7.71461 5.18401 7.41383C7.01042 6.82739 8.06639 6.47773 8.09394 6.45006C8.16157 6.38242 7.84364 6.47449 6.56101 6.89407ZM9.93601 7.02003C9.86891 7.06336 9.87364 7.07241 9.96301 7.07241C10.0224 7.07241 10.1075 7.04878 10.152 7.02003C10.2191 6.97669 10.2144 6.96765 10.125 6.96765C10.0656 6.96765 9.98056 6.99127 9.93601 7.02003ZM30.3525 7.09577C30.3649 7.10765 30.6788 7.27329 31.05 7.46377C32.0834 7.99406 32.4134 8.20195 33.858 9.23349C34.6583 9.80481 34.722 9.8472 34.722 9.80711C34.722 9.76161 32.7314 8.35991 32.2041 8.03401C31.5851 7.65156 30.2018 6.95051 30.3525 7.09577ZM3.07801 7.29003C3.07801 7.31973 3.00659 7.34403 2.91925 7.34403C2.8319 7.34403 2.74537 7.36833 2.72701 7.39803C2.70865 7.42773 2.62211 7.45203 2.53477 7.45203C2.44742 7.45203 2.37601 7.47633 2.37601 7.50603C2.37601 7.53573 2.31674 7.56003 2.24425 7.56003C2.17175 7.56003 2.09737 7.58433 2.07901 7.61403C2.06065 7.64373 1.97114 7.66803 1.88015 7.66803C1.74475 7.66803 1.72612 7.68166 1.77742 7.74349C1.84465 7.82449 2.05201 7.79871 2.05201 7.70947C2.05201 7.67977 2.09899 7.66776 2.1565 7.68274C2.21401 7.69773 2.31121 7.67492 2.37263 7.63199C2.43392 7.58892 2.50628 7.56745 2.53328 7.58406C2.60875 7.63077 2.75401 7.55747 2.75401 7.47282C2.75401 7.41045 2.77358 7.40896 2.86525 7.46512C2.95813 7.52182 2.98729 7.51872 3.04102 7.44636C3.07652 7.39857 3.16373 7.36212 3.23474 7.36536C3.30589 7.36846 3.3746 7.34066 3.38756 7.30353C3.40295 7.25912 3.35422 7.23603 3.24446 7.23603C3.15293 7.23603 3.07801 7.26033 3.07801 7.29003ZM1.55251 7.76455C1.45396 7.7848 1.42682 7.85838 1.50107 7.90428C1.56047 7.941 1.69183 7.85365 1.66712 7.79385C1.65605 7.76712 1.60448 7.75389 1.55251 7.76455ZM18.846 8.69403C18.9203 8.71779 19.0782 8.73682 19.197 8.73628C19.4025 8.73534 19.4052 8.73318 19.251 8.69403C19.0161 8.63422 18.6594 8.63422 18.846 8.69403ZM19.548 8.80203C19.6223 8.82579 19.7681 8.84482 19.872 8.84428L20.061 8.84321L19.899 8.80203C19.6613 8.74155 19.3591 8.74155 19.548 8.80203ZM9.26101 12.526C9.09955 12.5469 9.32743 12.5614 9.82801 12.5618C10.4061 12.5625 10.5731 12.5507 10.368 12.5237C10.0144 12.4773 9.63077 12.4781 9.26101 12.526ZM43.416 12.5263C43.274 12.5472 43.521 12.5626 44.01 12.563C44.5956 12.5637 44.7578 12.5519 44.55 12.5243C44.1923 12.4766 43.746 12.4774 43.416 12.5263ZM8.66701 12.636C8.56292 12.6807 8.56319 12.6826 8.67727 12.6862C8.74234 12.6883 8.81065 12.6657 8.82901 12.636C8.86843 12.5722 8.81564 12.5722 8.66701 12.636ZM10.8 12.636C10.8446 12.6648 10.9418 12.6864 11.016 12.6838L11.151 12.6792L11.016 12.636C10.8078 12.5693 10.6969 12.5693 10.8 12.636ZM42.849 12.636C42.7449 12.6807 42.7452 12.6826 42.8593 12.6862C42.9243 12.6883 42.9927 12.6657 43.011 12.636C43.0504 12.5722 42.9976 12.5722 42.849 12.636ZM44.982 12.636C45.0266 12.6648 45.1238 12.6864 45.198 12.6838L45.333 12.6792L45.198 12.636C44.9898 12.5693 44.8789 12.5693 44.982 12.636ZM11.259 12.744C11.2774 12.7737 11.3457 12.7963 11.4108 12.7943C11.5248 12.7906 11.5251 12.7887 11.421 12.744C11.2724 12.6802 11.2196 12.6802 11.259 12.744ZM45.441 12.744C45.4594 12.7737 45.5277 12.7963 45.5928 12.7943C45.7068 12.7906 45.7071 12.7887 45.603 12.744C45.4544 12.6802 45.4016 12.6802 45.441 12.744ZM11.826 12.9334C11.826 12.9465 11.9293 13.007 12.0555 13.0676C12.6098 13.334 13.0758 13.6758 13.5135 14.137C13.6843 14.3168 13.824 14.4469 13.824 14.4261C13.824 14.3203 12.8094 13.4194 12.5015 13.252C12.4419 13.2195 12.308 13.145 12.204 13.0863C11.9867 12.9637 11.826 12.8986 11.826 12.9334ZM46.008 12.9334C46.008 12.9465 46.1113 13.007 46.2375 13.0676C46.8114 13.3434 47.2119 13.6356 47.6685 14.1112C47.8541 14.3045 48.006 14.446 48.006 14.4255C48.006 14.3719 47.2618 13.655 47.007 13.4634C46.6961 13.2295 46.008 12.8644 46.008 12.9334ZM13.9216 14.607C13.9554 14.6664 14.0342 14.7758 14.097 14.85L14.2111 14.985L14.112 14.8053C14.0576 14.7065 13.9787 14.5972 13.9367 14.5623C13.8725 14.5092 13.87 14.5162 13.9216 14.607ZM48.193 14.7285C48.2763 14.8548 48.3547 14.958 48.3673 14.958C48.4062 14.958 48.1995 14.6294 48.1183 14.5623C48.0762 14.5275 48.1097 14.6023 48.193 14.7285ZM9.4839 15.1088C9.46661 15.1369 9.36077 15.1748 9.24872 15.1932C8.88733 15.2522 8.39849 15.5268 8.05316 15.8647C7.64965 16.2596 7.62953 16.362 7.95556 16.362C8.22421 16.362 8.4236 16.5242 8.42455 16.7435C8.429 17.7262 9.67722 19.0064 10.6326 19.0083C10.9075 19.0088 11.0981 19.2317 11.0889 19.542L11.0808 19.8159L11.31 19.6581C11.7642 19.3457 12.0704 18.8961 12.2533 18.2732C12.3729 17.8661 12.4093 17.0972 12.312 17.037C12.2823 17.0187 12.258 16.9458 12.258 16.875C12.258 16.8043 12.2337 16.7314 12.204 16.713C12.1743 16.6947 12.15 16.643 12.15 16.598C12.15 16.3322 11.4484 15.5901 10.9808 15.3614C10.4936 15.123 9.57137 14.9673 9.4839 15.1088ZM43.6659 15.1088C43.6486 15.1369 43.5406 15.1748 43.426 15.1932C43.0537 15.2527 42.4737 15.5855 42.1777 15.9092C41.8335 16.2859 41.8277 16.362 42.1431 16.362C42.4149 16.362 42.606 16.5363 42.606 16.784C42.606 16.914 42.6572 17.1075 42.7861 17.4651C42.9554 17.9348 43.782 18.7897 44.0685 18.7915C44.1156 18.7918 44.1707 18.8086 44.191 18.829C44.2587 18.8967 44.6287 19.0064 44.793 19.0075C45.0887 19.0095 45.2804 19.2238 45.2709 19.542L45.2628 19.8159L45.4942 19.6566C46.0852 19.25 46.548 18.3275 46.548 17.5557C46.548 16.5177 45.7091 15.4496 44.6658 15.1593C44.3888 15.0824 43.7037 15.0477 43.6659 15.1088ZM10.638 15.2946C11.6347 15.6787 12.2202 16.4768 12.2954 17.5535C12.3413 18.2118 12.0338 18.2192 11.8762 17.5637C11.6255 16.5203 10.8628 15.7784 9.811 15.5553C9.4951 15.4883 9.40978 15.4108 9.47242 15.2476C9.51373 15.14 10.3213 15.1725 10.638 15.2946ZM45.0517 15.4099C45.9023 15.8189 46.4998 16.7445 46.4923 17.6414C46.4878 18.1793 46.1913 18.1408 46.0545 17.5846C45.7981 16.5414 44.9697 15.7127 44.0486 15.5771C43.704 15.5265 43.5232 15.3861 43.6328 15.2541C43.7713 15.0871 44.5611 15.1739 45.0517 15.4099ZM48.9256 16.308C48.9256 16.3526 48.9493 16.4255 48.978 16.47C49.0246 16.542 49.0304 16.542 49.0304 16.47C49.0304 16.4255 49.0068 16.3526 48.978 16.308C48.9314 16.2361 48.9256 16.2361 48.9256 16.308ZM49.0682 17.01C49.086 17.1734 49.1095 17.3172 49.1203 17.3296C49.1622 17.3774 49.1299 16.9232 49.0841 16.821C49.0525 16.7506 49.0471 16.816 49.0682 17.01ZM14.8592 16.902C14.8618 17.1248 14.9468 17.3551 14.9488 17.145C14.9496 17.0559 14.9295 16.9344 14.904 16.875C14.8618 16.7769 14.8577 16.7793 14.8592 16.902ZM38.8386 17.55C38.8386 17.654 38.8496 17.6965 38.8633 17.6445C38.8768 17.5926 38.8768 17.5075 38.8633 17.4555C38.8496 17.4036 38.8386 17.4461 38.8386 17.55Z" fill="#747868"/>
<path id="path3" fill-rule="evenodd" clip-rule="evenodd" d="M51.4216 14.2425L50.2201 14.2581V14.7701V15.282H51.6166C52.3846 15.282 53.1257 15.2974 53.2636 15.3163L53.5141 15.3507V14.7763V14.202L53.0686 14.2144C52.8236 14.2213 52.0825 14.2339 51.4216 14.2425ZM9.47254 15.2476C9.4099 15.4108 9.49522 15.4883 9.81112 15.5553C10.8629 15.7784 11.6257 16.5202 11.8763 17.5637C12.0339 18.2192 12.3414 18.2118 12.2955 17.5535C12.2203 16.4768 11.6348 15.6787 10.6381 15.2946C10.3214 15.1725 9.51385 15.14 9.47254 15.2476ZM43.6329 15.2541C43.5233 15.3861 43.7041 15.5265 44.0487 15.5771C44.9698 15.7127 45.7982 16.5414 46.0546 17.5846C46.1915 18.1408 46.4879 18.1793 46.4924 17.6414C46.4999 16.7445 45.9024 15.8189 45.0518 15.4099C44.5612 15.1739 43.7714 15.0871 43.6329 15.2541Z" fill="#D1D1BD"/>
<path id="path4" fill-rule="evenodd" clip-rule="evenodd" d="M10.1791 5.71765L10.2871 5.76341L10.1791 5.79419C10.0956 5.81795 10.1016 5.82268 10.2061 5.81499C10.2804 5.80945 10.3411 5.7807 10.3411 5.751C10.3411 5.7213 10.2804 5.69132 10.2061 5.68444C10.0868 5.67337 10.0837 5.67715 10.1791 5.71765ZM14.2021 5.72481C14.1452 5.76207 14.1771 5.7676 14.3101 5.74317C14.543 5.70037 14.587 5.66972 14.4137 5.6708C14.3418 5.67121 14.2467 5.69551 14.2021 5.72481ZM15.4306 5.71023C15.6756 5.72022 16.0766 5.72022 16.3216 5.71023C16.5666 5.7001 16.3662 5.692 15.8761 5.692C15.3861 5.692 15.1856 5.7001 15.4306 5.71023ZM21.1006 5.71023C21.3456 5.72022 21.7466 5.72022 21.9916 5.71023C22.2366 5.7001 22.0362 5.692 21.5461 5.692C21.0561 5.692 20.8556 5.7001 21.1006 5.71023ZM24.0571 5.69686C24.0868 5.70699 24.4392 5.72561 24.8401 5.7383C25.2411 5.75099 25.5084 5.74317 25.4341 5.72103C25.3053 5.68255 23.9449 5.65879 24.0571 5.69686ZM30.4156 5.70928C30.527 5.72102 30.7092 5.72102 30.8206 5.70928C30.932 5.69767 30.8409 5.68808 30.6181 5.68808C30.3954 5.68808 30.3042 5.69767 30.4156 5.70928ZM13.8241 5.83442C13.765 5.87452 13.7869 5.87951 13.9051 5.85305C14.1037 5.80864 14.1468 5.77772 14.0087 5.7788C13.9517 5.77921 13.8687 5.80432 13.8241 5.83442ZM26.0011 5.8351C26.1199 5.85967 26.2657 5.87951 26.3251 5.87911L26.4331 5.87844L26.3251 5.83199C26.2657 5.80648 26.1199 5.78663 26.0011 5.78798L25.7851 5.79041L26.0011 5.8351ZM9.85512 5.886C9.75104 5.93068 9.75131 5.93257 9.86538 5.93621C9.93045 5.93824 9.99876 5.9157 10.0171 5.886C10.0565 5.82214 10.0038 5.82214 9.85512 5.886ZM13.4461 5.93999C13.3388 6.00938 13.4737 6.00938 13.6351 5.93999L13.7431 5.89356L13.6351 5.89058C13.5757 5.88896 13.4907 5.91124 13.4461 5.93999ZM26.6491 5.93999C26.7382 5.96267 26.8597 5.98238 26.9191 5.98387L27.0271 5.98643L26.9191 5.93999C26.8597 5.91448 26.7382 5.89477 26.6491 5.89612L26.4871 5.89882L26.6491 5.93999ZM9.53112 5.99399C9.42704 6.03868 9.42731 6.04057 9.54138 6.04421C9.60645 6.04624 9.67476 6.02369 9.69312 5.99399C9.73254 5.93014 9.67976 5.93014 9.53112 5.99399ZM27.2431 6.04799C27.4046 6.11738 27.5394 6.11738 27.4321 6.04799C27.3876 6.01924 27.3025 5.99697 27.2431 5.99859L27.1351 6.00155L27.2431 6.04799ZM8.49027 6.32839C8.03654 6.47959 7.67501 6.61284 7.68675 6.62472C7.69863 6.63646 8.03843 6.53588 8.44194 6.40115C8.84546 6.26629 9.21158 6.156 9.25559 6.156C9.29973 6.156 9.35076 6.13169 9.36912 6.10199C9.4188 6.02167 9.38505 6.03031 8.49027 6.32839ZM12.6901 6.156C12.5828 6.22539 12.7177 6.22539 12.8791 6.156L12.9871 6.10955L12.8791 6.10658C12.8197 6.10496 12.7347 6.12724 12.6901 6.156ZM28.1071 6.26399C28.2686 6.33338 28.4034 6.33338 28.2961 6.26399C28.2516 6.23524 28.1665 6.21296 28.1071 6.21458L27.9991 6.21755L28.1071 6.26399ZM11.9881 6.37199C11.9162 6.41857 11.9162 6.42437 11.9881 6.42437C12.0327 6.42437 12.1056 6.40075 12.1501 6.37199C12.2221 6.32542 12.2221 6.31961 12.1501 6.31961C12.1056 6.31961 12.0327 6.34324 11.9881 6.37199ZM28.4851 6.37199C28.6466 6.44138 28.7814 6.44138 28.6741 6.37199C28.6296 6.34324 28.5445 6.32096 28.4851 6.32258L28.3771 6.32555L28.4851 6.37199ZM11.6101 6.47999C11.5382 6.52657 11.5382 6.53237 11.6101 6.53237C11.6547 6.53237 11.7276 6.50875 11.7721 6.47999C11.8441 6.43342 11.8441 6.42761 11.7721 6.42761C11.7276 6.42761 11.6547 6.45124 11.6101 6.47999ZM28.8361 6.47999C28.8807 6.50875 28.9536 6.53237 28.9981 6.53237C29.0701 6.53237 29.0701 6.52657 28.9981 6.47999C28.9536 6.45124 28.8807 6.42761 28.8361 6.42761C28.7642 6.42761 28.7642 6.43342 28.8361 6.47999ZM11.2591 6.58799C11.1911 6.61729 11.1811 6.63443 11.2321 6.63443C11.2767 6.63443 11.3617 6.61351 11.4211 6.58799C11.4892 6.5587 11.4992 6.54155 11.4481 6.54155C11.4036 6.54155 11.3185 6.56248 11.2591 6.58799ZM29.1601 6.58799C29.2047 6.61675 29.2776 6.64038 29.3221 6.64038C29.3941 6.64038 29.3941 6.63457 29.3221 6.58799C29.2776 6.55924 29.2047 6.53561 29.1601 6.53561C29.0882 6.53561 29.0882 6.54142 29.1601 6.58799ZM10.8811 6.696C10.8131 6.72529 10.8031 6.74243 10.8541 6.74243C10.8987 6.74243 10.9837 6.72151 11.0431 6.696C11.1112 6.6667 11.1212 6.64955 11.0701 6.64955C11.0256 6.64955 10.9405 6.67048 10.8811 6.696ZM10.5031 6.80399L10.3951 6.85044L10.5031 6.85341C10.5625 6.85503 10.6476 6.83275 10.6921 6.80399C10.7994 6.7346 10.6646 6.7346 10.5031 6.80399ZM10.1251 6.91199L10.0171 6.95844L10.1251 6.9614C10.1845 6.96302 10.2696 6.94075 10.3141 6.91199C10.4214 6.8426 10.2866 6.8426 10.1251 6.91199ZM9.73092 7.01932C9.50885 7.07183 9.46673 7.1122 9.54827 7.19374C9.59741 7.24288 9.61212 7.23653 9.61212 7.16579C9.61212 7.1068 9.65559 7.07372 9.73362 7.07318C9.80045 7.07278 9.89157 7.04875 9.93612 7.01999C10.0291 6.95992 9.98229 6.95978 9.73092 7.01932ZM30.2442 6.988C30.26 7.00393 30.5755 7.16525 30.9451 7.34669C31.3147 7.528 31.5928 7.65206 31.5631 7.62223C31.5334 7.59226 31.2826 7.4555 31.0057 7.31807C30.5062 7.07035 30.1888 6.93278 30.2442 6.988ZM5.07612 7.45199C5.00417 7.49857 5.00417 7.50437 5.07612 7.50437C5.12067 7.50437 5.19357 7.48075 5.23812 7.45199C5.31008 7.40542 5.31008 7.39961 5.23812 7.39961C5.19357 7.39961 5.12067 7.42324 5.07612 7.45199ZM4.75212 7.55999C4.68017 7.60657 4.68017 7.61237 4.75212 7.61237C4.79667 7.61237 4.86957 7.58875 4.91412 7.55999C4.98608 7.51342 4.98608 7.50761 4.91412 7.50761C4.86957 7.50761 4.79667 7.53124 4.75212 7.55999ZM31.6981 7.72469C31.8854 7.85173 31.9922 7.88872 31.8601 7.78085C31.7859 7.7201 31.7008 7.67029 31.6711 7.67002C31.6414 7.66975 31.6536 7.69445 31.6981 7.72469ZM32.0221 7.90559C32.0221 7.91761 32.1033 7.97512 32.2023 8.03357C32.3014 8.09203 32.4472 8.18234 32.5263 8.23418C32.6055 8.28602 32.6701 8.31694 32.6701 8.3029C32.6701 8.27388 32.0929 7.88399 32.0499 7.88399C32.0347 7.88399 32.0221 7.89371 32.0221 7.90559ZM32.7241 8.3349C32.7241 8.34813 33.1962 8.69481 33.7731 9.10507C34.3501 9.51547 34.808 9.87403 34.7908 9.90198C34.7733 9.93033 34.7887 9.93464 34.8258 9.91169C34.9148 9.85675 34.8515 9.80261 33.9661 9.17554C33.0215 8.50648 32.7241 8.30533 32.7241 8.3349ZM1.64591 9.67679C1.63106 9.71554 1.62525 10.7313 1.63295 11.9341L1.64712 14.121H1.97112H2.29512V11.88V9.63899L1.98395 9.62279C1.76606 9.61145 1.66467 9.62765 1.64591 9.67679ZM3.18612 11.88V14.148H3.55575C3.94361 14.148 3.98235 14.1273 4.14975 13.8301C4.27247 13.6122 4.42259 13.3476 4.54409 13.1355C4.60781 13.0241 4.73282 12.7993 4.82192 12.636C4.91088 12.4726 5.00741 12.3086 5.03643 12.2715C5.09286 12.1994 5.06424 12.109 4.79667 11.5141C4.7127 11.3277 4.64412 11.1645 4.64412 11.1513C4.64412 11.138 4.5858 10.9988 4.51466 10.8421C4.44338 10.6852 4.3451 10.4598 4.29636 10.341C4.24749 10.2222 4.15556 10.0096 4.09224 9.8685L3.97682 9.61199H3.58154H3.18612V11.88ZM20.3851 11.0672C20.2663 11.1249 20.0355 11.2315 19.8721 11.3041C19.4205 11.5046 19.0633 11.6635 18.7651 11.7967C18.6166 11.863 18.3863 11.9636 18.2532 12.0201C18.1202 12.0767 17.8328 12.2082 17.6147 12.3121L17.2179 12.5014L17.7951 13.2301C18.1127 13.6311 18.4407 14.044 18.524 14.148C18.7568 14.4381 20.0276 16.0415 20.1886 16.2481C20.4881 16.6324 20.3943 16.6076 21.8431 16.6871C22.4074 16.718 24.2907 16.828 26.0281 16.9316C27.7656 17.035 29.6002 17.1432 30.1051 17.1719C31.5861 17.256 32.7972 17.3279 33.7501 17.3885C34.2402 17.4197 35.0299 17.4678 35.5051 17.4953C35.9803 17.5229 36.6547 17.5623 37.0036 17.5829C37.7527 17.6274 37.8657 17.4348 37.3598 16.9762C37.1004 16.7412 37.3359 16.7793 33.5611 16.362C32.4691 16.2413 32.0389 16.1931 31.5901 16.1414C31.0164 16.0753 30.3641 16.0029 29.7001 15.9318C29.418 15.9015 28.9806 15.8536 28.7281 15.8252C28.4757 15.7969 28.0261 15.7468 27.7291 15.714C27.4321 15.6812 26.9947 15.6326 26.7571 15.606C26.5195 15.5794 26.0821 15.5308 25.7851 15.498C25.4881 15.4652 25.0386 15.4144 24.7861 15.3854C23.8842 15.2813 23.3481 15.2237 22.8805 15.1802C22.3442 15.1304 22.4478 15.1974 21.5198 14.3004C21.2224 14.013 20.9123 13.7257 20.8306 13.662C20.5972 13.4799 20.6428 13.4244 21.2896 13.1051L21.8971 12.8051L22.3291 12.8527C22.5667 12.8787 22.992 12.9265 23.2741 12.9588C23.5563 12.9912 23.9937 13.0403 24.2461 13.068C24.8484 13.1341 25.5028 13.2089 26.1361 13.284C26.8906 13.3734 27.5052 13.4429 28.0531 13.5008C28.3204 13.529 28.7457 13.5779 28.9981 13.6093C29.2506 13.6409 29.6637 13.6891 29.9161 13.7165C30.1686 13.7439 30.5817 13.7902 30.8341 13.8194C31.0866 13.8484 31.524 13.8977 31.8061 13.9286C32.0883 13.9597 32.5257 14.0098 32.7781 14.04C33.0306 14.0702 33.4437 14.1176 33.6961 14.1453C33.9486 14.173 34.6168 14.248 35.1811 14.3119C36.6686 14.4804 37.0262 14.4087 37.2388 13.8996C37.4031 13.5066 37.3853 13.4961 36.2881 13.3357C35.5044 13.2211 35.2135 13.1772 34.1686 13.0159C33.983 12.9873 33.661 12.9387 33.4531 12.9079C33.2452 12.8771 32.8443 12.8158 32.5621 12.7715C32.28 12.7274 31.5631 12.6187 30.9691 12.5303C30.3751 12.4419 29.476 12.307 28.9711 12.2309C28.4662 12.1547 27.883 12.0671 27.6751 12.0363C27.4672 12.0054 27.1635 11.9595 27.0001 11.934C26.4176 11.8433 25.8879 11.7625 25.5421 11.7121C25.3491 11.6837 25.0453 11.6378 24.8671 11.61C24.6889 11.5822 24.3852 11.5363 24.1921 11.5079C23.8464 11.4574 23.3166 11.3767 22.7341 11.286C22.1214 11.1906 21.617 11.1139 21.3031 11.0685C21.1249 11.0429 20.8941 11.0083 20.7901 10.992C20.6624 10.9718 20.5311 10.9963 20.3851 11.0672ZM9.30581 12.462C9.27084 12.4841 9.49332 12.5019 9.80004 12.5017C10.1068 12.5013 10.3296 12.4832 10.2954 12.4613C10.2138 12.4093 9.38762 12.4099 9.30581 12.462ZM43.4889 12.4613C43.4546 12.4832 43.6908 12.501 44.0138 12.5011C44.3367 12.5011 44.559 12.4847 44.508 12.4644C44.3818 12.4143 43.5664 12.4119 43.4889 12.4613ZM8.66766 12.5812C8.64714 12.6144 8.70155 12.6217 8.81292 12.6005C9.05174 12.555 9.07226 12.528 8.86827 12.528C8.77607 12.528 8.68575 12.5519 8.66766 12.5812ZM10.6426 12.5473C10.7024 12.5985 11.0184 12.6294 10.9886 12.5812C10.9705 12.5519 10.8802 12.528 10.788 12.528C10.6956 12.528 10.6303 12.5366 10.6426 12.5473ZM42.8497 12.5812C42.8291 12.6144 42.8836 12.6217 42.9949 12.6005C43.2337 12.555 43.2543 12.528 43.0503 12.528C42.9581 12.528 42.8678 12.5519 42.8497 12.5812ZM44.8246 12.5473C44.8844 12.5985 45.2004 12.6294 45.1706 12.5812C45.1525 12.5519 45.0622 12.528 44.97 12.528C44.8776 12.528 44.8123 12.5366 44.8246 12.5473ZM8.28777 12.6922C8.26496 12.729 8.30573 12.7356 8.40603 12.7116C8.61299 12.6619 8.63256 12.636 8.46327 12.636C8.38592 12.636 8.30694 12.6612 8.28777 12.6922ZM42.4711 12.69C42.4313 12.7545 42.5371 12.7545 42.6871 12.69C42.7835 12.6486 42.7796 12.6432 42.6499 12.6398C42.5699 12.6378 42.4895 12.6603 42.4711 12.69ZM7.99212 12.798C7.92017 12.8446 7.92017 12.8504 7.99212 12.8504C8.03667 12.8504 8.10957 12.8268 8.15412 12.798C8.22608 12.7514 8.22608 12.7456 8.15412 12.7456C8.10957 12.7456 8.03667 12.7692 7.99212 12.798ZM7.50612 13.0037C6.85677 13.3281 6.02585 14.0187 5.67161 14.5283C5.60033 14.631 5.75693 14.4885 6.01977 14.2116C6.51927 13.6853 6.89903 13.3956 7.53312 13.0568C7.96917 12.8238 7.94838 12.7829 7.50612 13.0037ZM41.5948 13.0621C40.9562 13.401 40.3397 13.9177 39.9046 14.4787C39.8039 14.6088 39.9635 14.4693 40.2593 14.1689C40.821 13.5985 41.2528 13.2748 41.7633 13.0413C42.0401 12.9148 42.1308 12.8497 42.0256 12.8535C42.0033 12.8542 41.8095 12.9481 41.5948 13.0621ZM46.4401 13.0936C46.4401 13.1077 46.5191 13.1578 46.6156 13.2049L46.7911 13.2905L46.6561 13.1804C46.5261 13.0745 46.4401 13.0399 46.4401 13.0936ZM12.7954 13.4302C12.8979 13.5131 13.1754 13.7632 13.4122 13.986C13.6668 14.2256 13.7851 14.3136 13.7021 14.2017C13.544 13.989 13.0947 13.59 12.8027 13.4032L12.6091 13.2794L12.7954 13.4302ZM46.9801 13.4297C47.0841 13.512 47.361 13.762 47.5953 13.9852C47.8297 14.2083 47.9763 14.3204 47.9211 14.2341C47.8133 14.0656 47.0775 13.4153 46.8991 13.331C46.8397 13.3028 46.8762 13.3472 46.9801 13.4297ZM13.9354 14.5665C14.0069 14.6482 14.0871 14.7393 14.1134 14.769C14.182 14.8463 14.0565 14.6254 13.9676 14.5125C13.9267 14.4605 13.8734 14.418 13.8492 14.418C13.8251 14.418 13.8638 14.4848 13.9354 14.5665ZM48.1503 14.6044C48.2321 14.707 48.3089 14.7811 48.3209 14.7691C48.3498 14.7402 48.0993 14.4249 48.0443 14.421C48.0208 14.4193 48.0685 14.502 48.1503 14.6044ZM5.3958 14.8905C5.35368 14.9722 5.30684 15.0511 5.29145 15.066C5.26067 15.096 5.03913 15.5567 4.95408 15.768C4.8288 16.0789 4.81274 16.1264 4.7798 16.281C4.67733 16.7639 4.63643 17.0186 4.60875 17.3475L4.57797 17.712L2.59955 17.7128C0.674986 17.7136 0.337216 17.7399 0.540121 17.8732C0.612076 17.9204 0.612076 17.9266 0.540121 17.9287C0.491251 17.93 0.515416 17.9658 0.601006 18.0189C0.679036 18.0673 0.784066 18.2003 0.834421 18.3145C0.884776 18.4286 0.948496 18.522 0.975901 18.522C1.00344 18.522 1.0943 18.6319 1.17786 18.7661C1.26143 18.9004 1.34661 18.9936 1.367 18.9732C1.38738 18.9526 1.40412 18.9765 1.40412 19.026C1.40412 19.0755 1.42842 19.116 1.45812 19.116C1.48782 19.116 1.51212 19.1686 1.51212 19.233C1.51212 19.2973 1.52751 19.3346 1.54641 19.3157C1.59015 19.2721 1.89728 19.6548 1.86299 19.7103C1.84881 19.7331 1.88567 19.7644 1.94466 19.7798C2.00379 19.7952 2.05212 19.8466 2.05212 19.894C2.05212 19.9413 2.07359 19.98 2.09978 19.98C2.1261 19.98 2.16026 20.0286 2.17578 20.088C2.2067 20.2064 5.1906 20.2624 5.26269 20.1459C5.2797 20.1185 5.22314 19.9423 5.13687 19.7544C4.77615 18.9686 4.60767 18.1497 4.66491 17.4625C4.72445 16.749 4.76036 16.4993 4.81139 16.4457C4.83812 16.4175 4.86012 16.3382 4.86012 16.2695C4.86012 16.2008 4.88253 16.1024 4.9098 16.0508C4.93707 15.9993 5.01078 15.8223 5.07356 15.6576C5.13633 15.493 5.2712 15.2196 5.37326 15.0501C5.47532 14.8806 5.53944 14.742 5.51568 14.742C5.49179 14.742 5.43792 14.8088 5.3958 14.8905ZM39.5414 14.9672C39.3767 15.2705 39.4157 15.2815 39.5963 14.9824C39.6761 14.8501 39.7239 14.7421 39.7023 14.7424C39.6808 14.7427 39.6083 14.8438 39.5414 14.9672ZM14.1967 14.931C14.2877 15.1072 14.3625 15.2048 14.3621 15.147C14.3618 15.1173 14.312 15.0322 14.2513 14.958C14.178 14.8684 14.1596 14.8593 14.1967 14.931ZM48.5352 15.2245C48.6452 15.4305 48.7423 15.579 48.7512 15.5544C48.76 15.5299 48.7042 15.4039 48.6273 15.2744C48.5503 15.145 48.4735 14.9965 48.4565 14.9445C48.4395 14.8925 48.4052 14.85 48.3805 14.85C48.3556 14.85 48.4253 15.0185 48.5352 15.2245ZM14.5839 15.6973C14.5961 15.8375 14.6806 15.9565 14.6843 15.8387C14.6864 15.7737 14.6638 15.7054 14.6341 15.687C14.6044 15.6686 14.5819 15.6732 14.5839 15.6973ZM48.8145 15.8074C48.961 16.2887 49.0273 16.5248 49.0805 16.7543C49.1585 17.0905 49.1571 18.1796 49.0784 18.5077C48.9506 19.0404 48.7938 19.5294 48.6721 19.7757C48.4482 20.2284 48.3141 20.196 50.4091 20.196H52.2721V18.954V17.712H50.7331H49.1941V17.3618C49.1941 17.1692 49.1674 16.8958 49.1346 16.7543C49.0173 16.2467 48.9668 16.0635 48.9189 15.9712C48.892 15.9196 48.8701 15.8421 48.8701 15.7989C48.8701 15.7557 48.8474 15.7063 48.8196 15.6892C48.7889 15.6701 48.7868 15.7163 48.8145 15.8074ZM39.0961 15.8998C39.0961 15.9722 39.0745 16.045 39.0481 16.0614C39.0217 16.0777 38.9845 16.1823 38.9653 16.294C38.8846 16.7658 38.824 17.1628 38.7925 17.4285L38.7588 17.712H26.8896H15.0204L14.993 17.2935C14.9565 16.7392 14.904 16.4006 14.8446 16.3377C14.818 16.3095 14.7961 16.232 14.7961 16.1654C14.7961 16.0989 14.7744 16.031 14.7479 16.0145C14.7209 15.9979 14.7228 16.0742 14.752 16.1869C14.8852 16.7019 14.9164 16.917 14.9412 17.494C14.9755 18.2871 14.7952 19.1708 14.4647 19.8293C14.4093 19.9395 14.3641 20.0671 14.3641 20.1128C14.3641 20.1875 15.6508 20.196 26.9191 20.196C33.9096 20.196 39.4741 20.1753 39.4741 20.1494C39.4741 20.1239 39.4039 19.9477 39.3181 19.7579C38.7712 18.5489 38.7154 17.3366 39.1427 15.9435C39.1751 15.8378 39.1766 15.768 39.1463 15.768C39.1187 15.768 39.0961 15.8273 39.0961 15.8998Z" fill="#00458E"/>
</g>
</g>
</svg>
